<svg id="Capa_1" data-name="Capa 1" xmlns="http://www.w3.org/2000/svg" viewBox="0 0 486.3 478.45"><defs><style>.cls-1{fill:#bba6d1;}</style></defs><polygon class="cls-1" points="212.27 329.81 212.12 332.66 210.98 337.94 208.99 342.94 205.99 347.21 202.28 350.92 198 353.92 193.01 355.92 187.73 357.06 184.88 357.2 182.17 357.06 176.75 355.92 171.9 353.92 167.62 350.92 163.91 347.21 160.91 342.94 158.91 337.94 157.77 332.66 157.63 329.81 157.77 327.1 158.91 321.68 160.91 316.83 163.91 312.55 167.62 308.84 171.9 305.85 176.75 303.71 182.17 302.71 184.88 302.56 187.73 302.71 193.01 303.71 198 305.85 202.28 308.84 205.99 312.55 208.99 316.83 210.98 321.68 212.12 327.1 212.27 329.81 212.27 329.81"/><polygon class="cls-1" points="314.55 141.51 314.4 149.93 314.69 166.9 314.98 173.47 314.98 176.89 315.12 182.59 314.83 193.01 313.69 198.14 312.55 201.28 307.13 211.55 298.57 224.53 287.44 238.66 281.02 245.5 274.61 251.92 261.05 263.19 242.37 276.17 234.81 280.74 229.67 284.31 219.68 290.44 217.69 291.58 211.98 295 206.56 298 204.28 298.86 203.42 296.86 201.85 290.73 200.71 286.87 197.29 275.46 195.58 267.62 194.15 259.34 192.15 244.22 191.58 232.38 191.58 225.96 192.29 207.13 194.15 182.02 197.86 161.62 200.43 152.5 201.85 147.79 208.7 132.38 219.11 112.41 231.95 91.01 238.94 80.74 243.08 74.89 251.35 64.34 255.35 59.91 260.77 54.35 274.03 42.23 288.87 29.96 303.99 18.55 310.98 13.7 320.97 7.42 332.81 1.43 336.52 0 336.23 0.28 335.66 1 334.66 3.57 333.38 9.99 331.67 17.69 328.95 28.67 322.82 56.92 317.4 89.73 314.98 115.69 314.4 133.09 314.55 141.51 314.55 141.51"/><polygon class="cls-1" points="335.09 438.51 330.52 436.51 325.82 435.23 321.96 433.8 304.13 427.81 289.44 423.82 282.17 422.39 272.32 420.82 267.47 420.11 265.62 419.82 261.77 419.25 256.06 417.54 250.64 414.12 241.22 406.56 233.38 397.86 226.67 388.01 223.68 382.31 219.83 374.75 213.69 361.62 212.41 357.2 212.41 355.63 212.84 355.35 220.97 354.49 231.81 353.78 240.08 353.92 251.64 355.06 258.2 356.2 260.91 357.2 264.19 358.06 267.19 358.77 272.75 360.48 283.88 365.47 291.72 370.47 295.29 373.04 299.43 376.17 305.85 381.45 315.97 391.44 322.25 398.71 324.96 402.28 334.8 416.97 338.8 423.39 341.51 429.38 341.79 430.52 343.22 435.37 344.22 438.08 344.93 439.8 345.93 441.37 346.79 442.79 346.64 443.22 339.23 440.65 335.09 438.51 335.09 438.51"/><polygon class="cls-1" points="169.04 257.63 168.9 259.77 167.19 262.48 163.76 263.91 162.91 263.91 159.06 263.91 154.06 263.91 153.64 264.76 154.78 272.04 155.06 277.03 154.92 281.74 153.78 289.87 152.92 292.01 151.92 293.86 148.36 299.57 141.8 306.84 134.09 312.55 127.39 316.26 123.54 317.97 119.11 320.11 114.12 321.96 111.27 322.82 108.84 323.53 100.43 325.53 90.3 326.96 85.73 326.39 84.59 325.25 84.59 325.1 84.17 325.1 87.16 323.68 88.3 323.25 87.45 322.54 86.3 322.39 85.59 322.25 85.16 320.82 85.73 320.25 87.45 319.25 94.15 316.54 99.71 314.83 103.14 313.69 110.56 309.84 113.27 307.7 116.26 305.13 121.68 299.43 124.11 296.14 129.38 288.87 135.52 279.31 137.94 274.89 138.09 273.89 138.37 273.61 138.23 273.46 136.95 273.89 131.67 277.17 116.69 287.3 113.12 289.73 108.27 292.29 83.88 304.42 72.32 309.27 66.48 311.27 64.48 311.55 60.48 311.84 52.92 311.69 47.36 310.84 41.8 308.98 36.38 305.56 31.38 300.43 27.25 293.15 25.68 288.44 24.11 282.88 22.97 273.46 23.54 265.76 25.25 259.63 27.82 255.06 30.39 251.64 33.81 248.93 34.38 248.5 36.52 247.07 39.09 245.5 39.94 244.79 44.08 243.22 51.35 241.65 63.05 240.51 71.04 240.51 75.18 240.51 80.31 240.65 87.45 240.65 95.58 241.08 96.43 240.94 97 239.66 96.58 239.08 89.73 231.1 70.04 207.13 54.64 187.3 46.65 176.6 41.08 168.61 30.53 152.5 16.83 128.96 9.7 115.26 6.13 107.84 1.85 97.15 0.28 91.44 0.14 89.44 0 84.59 0.14 80.46 1 78.17 1.85 77.03 3 75.32 5.85 73.18 10.56 71.75 13.98 71.61 20.83 71.33 23.25 71.33 24.82 71.33 36.52 72.75 47.93 76.03 61.77 82.31 73.18 89.73 81.03 95.86 89.16 103.42 97.29 112.41 105.42 122.68 113.41 134.81 117.26 141.51 120.11 146.07 122.25 150.64 125.11 157.2 129.81 170.18 135.09 188.73 139.37 210.7 141.65 228.39 142.22 235.09 142.94 245.08 142.79 250.93 142.79 250.93 142.79 251.07 142.65 252.64 143.08 254.35 143.79 254.35 147.22 251.64 149.21 249.64 151.78 247.64 152.92 246.79 153.49 242.08 153.35 237.51 153.49 228.67 154.35 219.68 154.92 219.68 155.49 220.54 156.2 222.97 156.49 224.82 156.77 233.38 156.92 246.07 157.2 246.93 157.92 247.22 160.48 247.64 165.62 250.21 168.19 253.49 168.76 255.78 168.9 256.77 169.04 257.63 169.04 257.63"/><polygon class="cls-1" points="195.29 478.45 195.86 477.88 201.28 471.32 206.99 462.33 210.7 454.92 213.98 446.21 216.4 436.51 216.97 431.24 217.4 429.24 218.12 411.69 217.97 405.99 215.69 395.29 210.98 383.59 209.84 381.74 209.13 380.31 203.42 370.18 200.57 366.62 199.85 366.19 197.57 367.47 193.29 372.32 184.16 386.59 182.31 390.01 181.88 390.72 179.6 396.71 178.03 402.71 177.6 406.42 177.32 410.41 178.46 417.83 181.31 426.67 182.17 428.1 183.59 431.95 190.58 453.49 194.43 470.04 195.15 477.31 195.29 478.45 195.29 478.45"/><polygon class="cls-1" points="221.25 328.1 223.11 324.82 240.51 303.42 255.06 289.3 266.9 279.31 273.75 274.18 280.31 269.33 284.45 267.04 290.72 263.62 297.86 260.34 304.28 257.49 317.97 252.35 331.81 248.21 345.93 245.08 359.77 242.79 373.32 241.37 386.16 240.8 398 241.22 403.42 241.79 410.27 242.79 424.39 245.5 445.5 250.64 469.75 258.06 484.73 263.48 486.3 264.33 482.02 266.47 456.77 276.75 436.94 286.02 427.67 291.3 419.25 296 402.56 304.85 395.29 309.56 387.01 315.83 373.61 328.24 367.61 333.24 359.2 339.51 347.64 346.64 345.22 347.79 343.36 348.78 337.66 350.35 330.67 351.78 327.96 352.06 317.69 353.06 308.7 353.06 300.71 352.21 280.74 349.78 264.9 346.36 256.35 343.79 248.93 341.22 234.95 335.94 229.38 333.52 225.53 331.52 221.4 328.53 221.25 328.1 221.25 328.1"/><polygon class="cls-1" points="155.21 200.28 154.21 200.43 150.07 203.14 148.36 205.99 147.93 208.7 147.93 210.41 148.22 213.55 150.07 217.26 153.92 218.97 154.78 218.97 155.63 219.11 161.05 219.26 165.19 218.69 167.04 218.12 168.04 217.4 169.19 214.41 169.33 210.27 168.47 206.13 167.62 204.28 166.62 202.57 164.62 200.85 163.91 200.43 161.62 199.71 156.49 200 155.21 200.28 155.21 200.28"/></svg>